<?xml version="1.0" encoding="UTF-8"?>
<svg id="Layer_2" data-name="Layer 2" xmlns="http://www.w3.org/2000/svg" viewBox="0 0 391.34 391.34">
  <g id="Layer_1-2" data-name="Layer 1">
    <g>
      <path d="M308.55,290.67c5.23-6.18,9.93-12.8,14.13-19.8,13.1-22,20.6-47.76,20.6-75.21s-7.51-53.2-20.6-75.28c-4.12-6.99-8.83-13.54-14.06-19.72l13.91-24.14,11.18-19.43c-3.09-3.16-6.33-6.18-9.71-9.05-9.49-8.32-19.87-15.75-30.91-22.08C264.4,9.42,231.21,0,195.67,0s-68.73,9.42-97.36,25.98c-11.04,6.33-21.41,13.69-30.98,22.08-3.39,2.87-6.62,5.89-9.71,8.98l11.18,19.43,13.98,24.21c-5.23,6.18-9.93,12.8-14.13,19.8-13.1,22-20.6,47.76-20.6,75.21s7.51,53.2,20.6,75.28c4.12,6.99,8.83,13.54,14.06,19.72l-13.91,24.14-11.18,19.43c3.09,3.16,6.33,6.18,9.71,9.05,9.49,8.32,19.87,15.75,30.91,22.08,28.7,16.56,61.89,25.98,97.43,25.98s68.73-9.42,97.36-25.98c11.04-6.33,21.41-13.69,30.98-22.08,3.39-2.87,6.62-5.89,9.71-8.98l-11.18-19.43-13.98-24.21ZM310.91,140.85c7.95,16.56,12.36,35.18,12.36,54.82h0c0,19.65-4.42,38.27-12.36,54.82-3.6,7.65-8.02,14.86-13.02,21.56l-44.08-76.39h0l41.43-71.82,2.65-4.56c5,6.7,9.42,13.91,13.02,21.56ZM297.51,311.35l-6.55-2.94-20.68-9.35-60.49-27.3,32.45-56.07,41.65,72.12,10.3,17.74,3.31,5.81ZM242.25,175.65l-32.45-56.07,55.26-24.95,5.3-2.43,20.6-9.27,6.55-2.94-3.31,5.74-10.3,17.81-3.46,5.96-38.19,66.16ZM205.6,21.85c9.86.52,19.5,1.91,28.92,4.12,19.21,4.34,37.24,11.92,53.43,22.08,4.41,2.65,8.76,5.3,13.17,8.02-4.42,2.06-8.76,4.05-13.17,6.11l-12.66,5.89-3.02,1.4-22.59,10.15-.44.22-43.64,19.72V21.85ZM103.39,48.05c16.19-10.16,34.22-17.73,53.43-22.08,9.42-2.21,19.06-3.61,28.92-4.12v77.71l-43.64-19.72-18.18-8.24c-1.62-.66-3.24-1.4-4.86-2.13-2.13-.88-4.34-1.84-6.48-2.8-.07,0-.15-.07-.15-.07-7.51-3.16-15.01-6.4-22.44-9.64,4.49-2.94,8.98-5.96,13.39-8.9ZM181.54,119.58l-32.45,56.07-41.65-72.12-10.3-17.74-3.31-5.81,6.55,2.94,20.68,9.35,60.49,27.3ZM80.43,250.49c-7.95-16.56-12.36-35.18-12.36-54.82h0c0-19.65,4.42-38.27,12.36-54.82,3.6-7.65,8.02-14.86,13.02-21.56l44.08,76.39h0l-41.43,71.82-2.65,4.56c-5-6.7-9.42-13.91-13.02-21.56ZM149.09,215.69l32.45,56.07-55.26,24.95-5.3,2.43-20.6,9.27-6.55,2.94,3.31-5.74,10.3-17.81,3.46-5.96,38.19-66.16ZM185.74,369.49c-9.86-.52-19.5-1.91-28.92-4.12-19.21-4.34-37.24-11.92-53.43-22.08-4.41-2.65-8.76-5.3-13.17-8.02,4.41-2.06,8.76-4.05,13.17-6.11l12.66-5.89,3.02-1.4,22.59-10.15.44-.22,43.64-19.72v77.71ZM185.74,239.01l-25.17-43.34h.07l25.09-43.34v43.34h0v43.34ZM205.6,152.33l25.17,43.34h-.07l-25.09,43.34v-43.34h0v-43.34ZM287.95,343.29c-16.19,10.16-34.22,17.73-53.43,22.08-9.42,2.21-19.06,3.61-28.92,4.12v-77.71l43.64,19.72,18.18,8.24c1.62.66,3.24,1.4,4.86,2.13,2.13.88,4.34,1.84,6.48,2.8.07,0,.15.07.15.07,7.51,3.16,15.01,6.4,22.44,9.64-4.49,2.94-8.98,5.96-13.39,8.9Z"/>
      <path d="M391.34,195.67c0-45.84-15.75-87.94-42.17-121.27l-11.7,20.31c20.38,28.48,32.31,63.36,32.31,100.96h0c0,37.6-11.92,72.48-32.31,100.96l11.77,20.24c26.35-33.33,42.09-75.35,42.09-121.2h0Z"/>
      <path d="M21.56,195.67c0-37.6,11.92-72.48,32.31-100.96l-11.77-20.24C15.75,107.81,0,149.83,0,195.67h0c0,45.84,15.75,87.94,42.17,121.27l11.7-20.31c-20.38-28.48-32.31-63.36-32.31-100.96h0Z"/>
    </g>
  </g>
</svg>